<svg xmlns="http://www.w3.org/2000/svg" xmlns:xlink="http://www.w3.org/1999/xlink" width="500" zoomAndPan="magnify" viewBox="0 0 375 374.999991" height="500" preserveAspectRatio="xMidYMid meet" version="1.2"><defs><clipPath id="5029cd3663"><path d="M 50.84375 43 L 324.15625 43 L 324.15625 335 L 50.84375 335 Z M 50.84375 43 "/></clipPath><clipPath id="f637520056"><path d="M 50.851562 312.523438 C 58.648438 162.148438 60.074219 146.324219 62.101562 128.324219 C 63.976562 111.675781 60.675781 91.425781 68.625 80.476562 C 75.824219 70.574219 95.324219 61.425781 104.550781 63.074219 C 111.601562 64.351562 114.074219 71.773438 120.824219 79.875 C 134.851562 96.898438 165.898438 144.523438 180 163.726562 C 187.5 173.925781 191.398438 179.398438 197.625 186.976562 C 204 194.699219 211.050781 202.5 217.875 209.550781 C 224.25 216.226562 229.5 221.25 237.226562 228.300781 C 247.949219 238.125 263.925781 252.226562 276.75 262.425781 C 288.226562 271.5 304.800781 281.925781 310.351562 286.875 C 312.300781 288.675781 312.976562 289.425781 314.023438 290.925781 C 315.148438 292.425781 316.050781 294.074219 316.726562 295.800781 C 317.398438 297.449219 317.851562 299.324219 318.148438 301.125 C 318.375 302.925781 318.449219 304.875 318.226562 306.675781 C 318.074219 308.476562 317.625 310.351562 317.023438 312.074219 C 316.351562 313.800781 315.523438 315.523438 314.476562 317.023438 C 313.5 318.523438 312.226562 320.023438 310.875 321.226562 C 309.523438 322.5 308.023438 323.550781 306.375 324.449219 C 304.800781 325.351562 303 326.023438 301.273438 326.476562 C 299.476562 327 297.601562 327.226562 295.800781 327.300781 C 293.925781 327.300781 292.050781 327.074219 290.25 326.699219 C 288.449219 326.25 286.726562 325.648438 285.074219 324.824219 C 283.425781 324 281.851562 323.699219 280.425781 321.75 C 277.5 317.625 274.726562 307.273438 273.523438 297.226562 C 271.726562 282.074219 275.25 263.699219 275.925781 239.175781 C 277.125 196.648438 276.226562 84.375 278.476562 64.800781 C 278.925781 60.75 279.148438 59.773438 279.976562 57.523438 C 280.875 55.273438 282.226562 53.023438 283.800781 51.226562 C 285.375 49.351562 287.324219 47.625 289.425781 46.425781 C 291.523438 45.148438 293.925781 44.175781 296.25 43.648438 C 298.648438 43.125 301.273438 42.976562 303.675781 43.199219 C 306.074219 43.5 308.550781 44.175781 310.800781 45.148438 C 312.976562 46.199219 315.148438 47.625 316.949219 49.351562 C 318.675781 51 320.25 53.023438 321.449219 55.199219 C 322.574219 57.300781 323.398438 59.773438 323.773438 62.175781 C 324.226562 64.574219 324.226562 67.199219 323.773438 69.601562 C 323.398438 72 322.574219 74.476562 321.449219 76.574219 C 320.324219 78.75 318.75 80.851562 317.023438 82.5 C 315.226562 84.148438 313.125 85.648438 310.875 86.625 C 308.699219 87.675781 306.226562 88.351562 303.75 88.648438 C 301.351562 88.949219 298.800781 88.800781 296.398438 88.273438 C 294 87.75 291.601562 86.773438 289.5 85.574219 C 287.476562 84.300781 285.449219 82.648438 283.875 80.773438 C 282.300781 78.898438 280.949219 76.726562 280.050781 74.476562 C 279.148438 72.226562 278.550781 69.675781 278.476562 67.273438 C 278.324219 64.800781 278.550781 62.25 279.226562 59.851562 C 279.898438 57.523438 280.949219 55.199219 282.300781 53.175781 C 283.648438 51.148438 285.449219 49.273438 287.398438 47.773438 C 289.351562 46.351562 291.601562 45.074219 293.925781 44.324219 C 296.175781 43.5 298.800781 43.125 301.199219 43.125 C 303.601562 43.125 306.226562 43.5 308.476562 44.25 C 310.800781 45.074219 313.125 46.273438 315.074219 47.699219 C 316.949219 49.199219 318.75 51.074219 320.101562 53.101562 C 321.523438 55.050781 322.574219 57.449219 323.25 59.773438 C 323.925781 62.101562 323.925781 63.300781 324.074219 67.125 C 324.601562 80.324219 321.976562 125.175781 321.523438 155.773438 C 321 188.625 321.675781 233.851562 321.148438 257.925781 C 320.925781 271.125 320.699219 279.300781 320.023438 288.601562 C 319.425781 296.398438 319.125 309.898438 317.625 310.050781 C 316.050781 310.199219 309.300781 287.398438 310.273438 286.875 C 310.800781 286.574219 312.976562 289.425781 314.023438 290.925781 C 315.148438 292.425781 316.050781 294.074219 316.726562 295.800781 C 317.398438 297.449219 317.851562 299.324219 318.148438 301.125 C 318.375 302.925781 318.449219 304.875 318.226562 306.675781 C 318.074219 308.476562 317.625 310.351562 317.023438 312.074219 C 316.351562 313.800781 315.523438 315.523438 314.476562 317.023438 C 313.5 318.523438 312.226562 320.023438 310.875 321.226562 C 309.523438 322.5 308.023438 323.550781 306.375 324.449219 C 304.800781 325.351562 303 326.023438 301.273438 326.476562 C 299.476562 327 297.601562 327.226562 295.800781 327.300781 C 293.925781 327.300781 292.050781 327.074219 290.25 326.699219 C 288.449219 326.324219 286.726562 325.648438 285.074219 324.824219 C 283.425781 324 282.675781 323.398438 280.425781 321.75 C 273.75 316.875 253.949219 301.574219 241.5 291.074219 C 229.425781 280.949219 216.675781 269.25 206.699219 259.875 C 198.824219 252.449219 193.050781 246.898438 186.074219 239.625 C 178.5 231.675781 172.574219 225.601562 163.125 213.976562 C 145.425781 192.148438 104.101562 137.625 91.273438 116.101562 C 85.5 106.425781 78.300781 97.726562 80.773438 93.898438 C 83.476562 89.699219 106.273438 88.875 111.074219 94.648438 C 117.300781 102.074219 105.300781 127.425781 103.199219 144.375 C 101.023438 162.148438 99.75 179.773438 98.324219 198.976562 C 96.75 220.574219 95.324219 246.824219 94.351562 267.523438 C 93.523438 284.699219 93.375 306.898438 92.625 314.550781 C 92.324219 317.101562 92.25 317.925781 91.726562 319.5 C 91.273438 321.148438 90.601562 322.726562 89.699219 324.148438 C 88.875 325.574219 87.824219 327 86.699219 328.125 C 85.5 329.324219 84.148438 330.449219 82.726562 331.351562 C 81.300781 332.175781 79.726562 332.925781 78.148438 333.449219 C 76.574219 333.976562 74.851562 334.273438 73.199219 334.425781 C 71.550781 334.5 69.824219 334.425781 68.175781 334.199219 C 66.523438 333.898438 64.875 333.375 63.375 332.699219 C 61.800781 332.023438 60.300781 331.199219 59.023438 330.148438 C 57.675781 329.175781 56.476562 327.976562 55.425781 326.625 C 54.375 325.351562 53.398438 323.851562 52.726562 322.351562 C 52.050781 320.851562 51.523438 319.199219 51.148438 317.550781 C 50.851562 315.898438 50.851562 312.523438 50.851562 312.523438 "/></clipPath></defs><g id="12abdf4863"><g clip-rule="nonzero" clip-path="url(#5029cd3663)"><g clip-rule="nonzero" clip-path="url(#f637520056)"><path style=" stroke:none;fill-rule:nonzero;fill:#ffcde0;fill-opacity:1;" d="M 47.851562 40.125 L 327.148438 40.125 L 327.148438 337.394531 L 47.851562 337.394531 Z M 47.851562 40.125 "/></g></g></g></svg>